PathFileType	3	(X/Y/Z)	D:\minhoCalibration\240510\subject4_KPNP\preferred\preferred03.trc
DataRate	CameraRate	NumFrames	NumMarkers	Units	OrigDataRate	OrigDataStartFrame	OrigNumFrames
200.0	200.0	22	10	mm	200.0	190	87	
Frame#	Time	Left_Ankle_Outer1			Left_Ankle_Inner1			Left_Knee_Outer1			Left_Knee_Inner1			Left_Wrist1			Right_Wrist1			Right_Knee_Inner1			Right_Knee_Outer1			Right_Ankle_Inner1			Right_Ankle_Outer1			
		X1	Y1	Z1	X2	Y2	Z2	X3	Y3	Z3	X4	Y4	Z4	X5	Y5	Z5	X6	Y6	Z6	X7	Y7	Z7	X8	Y8	Z8	X9	Y9	Z9	X10	Y10	Z10	
190	0.94	-544.94183	462.57538	1397.8933	-476.15448	413.93835	1335.9966	-702.82361	679.12567	974.85535	-599.39563	648.52551	938.50677	-546.03912	1071.0343	1189.1167	-236.84566	925.40222	1295.693	-350.50476	515.57562	1070.1625	-265.80148	520.48627	1142.4779	-484.72925	80.255035	1243.3839	-437.38013	89.768661	1272.9625
191	0.945	-554.03485	476.75455	1375.1735	-482.04248	428.40289	1316.9147	-693.83295	696.68506	949.45001	-588.76904	665.95258	916.13446	-540.49475	1078.7275	1180.5909	-239.06343	926.88892	1299.3591	-348.74628	517.55267	1072.0887	-264.00406	523.23218	1144.9552	-483.14426	82.752533	1243.4427	-435.91867	92.050995	1273.5885
192	0.95	-564.0777	491.17224	1352.6876	-489.95767	442.50479	1296.5864	-683.70721	715.01715	924.01263	-577.133	683.97748	894.61383	-534.53729	1086.3036	1172.4406	-239.72694	929.68536	1302.6228	-345.61221	519.94879	1072.5062	-262.22083	525.95111	1147.1418	-481.82458	85.331741	1243.0145	-434.46497	93.72718	1273.1237
193	0.955	-574.802	505.98569	1330.3967	-498.77634	457.27582	1277.2814	-671.3158	733.68323	899.34186	-564.82593	702.26526	874.20679	-528.31097	1093.7173	1164.7964	-239.6033	932.09204	1306.0824	-342.68356	522.68762	1073.2787	-260.1181	528.742	1148.9679	-480.90552	87.970528	1242.2501	-434.43536	96.502144	1273.4628
194	0.96	-586.23218	521.31812	1307.8312	-508.63708	472.79584	1258.1675	-658.26099	753.83466	875.06726	-551.08038	720.57361	854.61377	-521.87567	1101.0981	1157.5303	-240.87166	934.06531	1309.7985	-339.63077	524.85205	1073.1931	-257.97125	531.23444	1150.6715	-480.35739	90.658859	1241.087	-434.15976	98.804443	1272.6362
195	0.965	-598.22449	537.3407	1284.8909	-518.87103	487.93765	1239.3853	-643.44415	774.16602	851.80615	-536.42889	738.56256	837.48279	-515.10101	1107.7834	1151.0071	-242.60512	935.70227	1313.7706	-336.11343	527.14087	1072.8516	-255.67993	533.64447	1152.2821	-480.4541	93.609062	1239.744	-434.54834	101.14877	1272.1108
196	0.97	-610.71411	553.83771	1261.6553	-530.20288	503.26712	1220.2815	-626.97473	795.03467	829.60803	-520.70367	757.19495	820.93719	-507.93271	1114.6237	1144.697	-244.57434	937.01685	1318.2124	-332.55228	529.29181	1072.3314	-253.57535	535.86865	1153.6647	-480.02698	96.403801	1237.8654	-434.95828	103.99963	1271.3495
197	0.975	-623.60205	570.88092	1237.9681	-542.23792	518.82135	1201.0929	-609.19696	816.28052	808.81195	-502.61832	775.9978	805.35901	-501.46848	1121.2854	1139.3801	-247.54283	938.02216	1322.6211	-327.4967	531.2843	1070.6702	-251.37117	538.10541	1155.0371	-480.31317	99.422203	1235.7791	-435.56238	106.71456	1270.0483
198	0.98	-636.66626	588.74249	1214.0245	-555.31506	534.17194	1180.981	-590.11938	837.63727	789.67224	-484.92194	794.00134	791.76947	-493.50336	1128.2552	1133.3145	-251.29893	938.07996	1328.1111	-322.49829	533.24902	1068.8977	-249.12555	540.2334	1156.2322	-480.27765	102.48483	1233.327	-436.58563	109.57283	1268.8011
199	0.985	-650.22375	607.29871	1188.708	-568.65826	550.39539	1160.6927	-569.62939	858.95929	772.15222	-466.48029	811.26135	779.67523	-486.25522	1134.7229	1128.6007	-255.1288	938.04517	1333.1055	-317.21442	535.10895	1067.1554	-247.09958	542.14545	1157.0763	-480.88361	105.78193	1230.9481	-437.51608	112.16655	1266.7916
200	0.99	-663.86749	626.73425	1162.563	-583.18829	566.76422	1139.053	-548.18365	880.09979	756.58856	-447.89514	827.73395	769.00073	-479.1774	1140.6881	1124.599	-259.80084	937.30658	1338.1829	-311.6145	537.11462	1065.452	-245.32732	543.98438	1157.7551	-481.24036	108.57211	1227.5258	-438.60654	114.86334	1264.5239
201	0.995	-677.68774	646.82227	1135.5245	-598.16003	583.77905	1116.5582	-525.18341	900.78534	741.82654	-427.90829	844.0235	759.9574	-471.9223	1146.5485	1120.5742	-264.97757	936.15295	1342.7931	-305.76642	538.83337	1063.8595	-243.5032	545.80286	1158.3485	-481.2923	110.53579	1223.6577	-439.74115	117.27673	1261.8159
202	1	-691.90997	667.96259	1107.59	-614.3949	601.64124	1092.3927	-502.10434	920.41309	731.8584	-409.38712	858.34277	753.23279	-464.69626	1152.0563	1117.2349	-271.03311	934.7019	1347.2141	-300.12701	540.38867	1062.7562	-241.79121	547.50165	1159.1069	-480.9827	112.94164	1219.8584	-440.85956	119.42831	1258.6802
203	1.005	-705.17096	689.0957	1077.9128	-630.43256	619.88666	1066.2056	-478.39017	939.28442	722.64789	-390.91779	872.28125	747.86481	-457.5513	1157.2555	1114.1448	-277.92038	933.06879	1350.7212	-293.61652	541.54578	1060.9907	-240.48009	549.14429	1159.7257	-480.94269	114.78281	1215.2468	-441.90271	121.22158	1255.3573
204	1.01	-718.21344	711.81134	1046.7549	-646.52271	639.04163	1038.5684	-454.55338	957.25165	715.3584	-372.52139	884.76422	743.62482	-451.04642	1161.9347	1111.8779	-284.98407	931.10071	1354.5024	-287.73306	542.91998	1060.8746	-239.38544	550.60522	1160.7881	-480.47348	116.46227	1211.0037	-442.95105	122.84367	1251.9802
205	1.015	-730.60626	735.24438	1014.1264	-662.12793	659.11432	1009.1578	-430.96518	974.43915	709.92566	-353.74152	896.25696	740.47772	-444.33771	1166.3215	1109.6078	-293.03186	929.29688	1357.6184	-283.51196	543.29248	1060.951	-239.05544	551.85883	1161.843	-481.64838	118.7812	1206.761	-444.09326	124.35279	1248.59
206	1.02	-741.61572	759.03052	979.55536	-676.90668	680.13324	977.59839	-407.10391	989.8313	706.16998	-337.79742	906.06329	738.38928	-437.74863	1170.3893	1107.4683	-301.85107	927.38	1359.4617	-278.37671	543.74292	1060.312	-239.16893	553.10138	1163.1168	-481.52652	120.27693	1202.556	-445.30911	125.82874	1245.3406
207	1.025	-751.37164	783.76361	943.28802	-690.22644	701.59064	944.29572	-384.43463	1003.8047	704.60632	-321.80481	914.84631	737.05994	-431.37885	1174.2816	1105.6454	-310.92923	925.42627	1360.6715	-274.62726	544.19836	1060.2758	-239.83647	554.13287	1164.5198	-481.94312	121.78884	1198.5171	-446.65704	127.33768	1242.2065
208	1.03	-759.19086	809.10327	905.04327	-702.42542	723.84808	908.27759	-361.62228	1015.4487	704.27844	-306.62949	922.14716	736.42175	-425.3591	1177.7643	1104.0387	-320.39996	923.43036	1360.8046	-271.04001	544.55402	1059.8145	-241.0399	554.95203	1165.6453	-482.58957	123.43316	1194.9272	-448.17932	128.8522	1239.2218
209	1.035	-764.37146	835.02167	864.83514	-713.0072	746.88202	869.72211	-340.06473	1025.3575	705.53589	-292.91721	928.4068	736.46924	-419.577	1180.9106	1102.3782	-330.12201	921.52533	1359.8293	-268.46359	544.7724	1059.1703	-242.56216	555.7254	1166.4481	-483.79617	124.82841	1191.5819	-449.84787	130.35735	1236.4371
210	1.04	-767.97003	862.05334	823.927	-721.24304	770.42261	828.55078	-319.75638	1033.4258	708.16437	-280.72635	933.49896	737.13849	-414.51523	1183.8462	1101.3596	-339.69254	919.63544	1357.7209	-266.91791	545.00635	1058.4147	-244.62198	556.36444	1166.8672	-484.49979	126.09218	1188.0426	-451.66837	131.74965	1233.6708
211	1.045	-767.49786	888.52368	780.73267	-726.70819	795.05646	785.77472	-300.56604	1039.8533	711.90076	-270.23053	937.60693	738.11499	-409.67789	1186.4015	1100.3234	-348.96985	917.74115	1354.6118	-265.71777	545.40643	1056.8137	-247.04823	556.96082	1166.5886	-485.68539	127.49681	1184.9333	-453.59674	132.9854	1230.9214
